<?xml version="1.0" encoding="iso-8859-1"?>
<!-- Generator: Adobe Illustrator 19.0.0, SVG Export Plug-In . SVG Version: 6.00 Build 0)  -->
<svg version="1.1" id="Layer_1" xmlns="http://www.w3.org/2000/svg" xmlns:xlink="http://www.w3.org/1999/xlink" x="0px" y="0px"
	 viewBox="0 0 512 512" style="enable-background:new 0 0 512 512;" xml:space="preserve">
<path style="fill:#FFCC75;" d="M78.979,136.17V495.66h354.043V136.17H78.979z M405.787,269.617c0,4.513-3.657,8.17-8.17,8.17v16.34
	c4.513,0,8.17,3.657,8.17,8.17c0,22.526-18.325,40.851-40.851,40.851H147.064c-22.526,0-40.851-18.325-40.851-40.851v-98.043
	c0-22.526,18.325-40.851,40.851-40.851h217.872c22.526,0,40.851,18.325,40.851,40.851V269.617z"/>
<path style="fill:#98D9D5;" d="M389.447,269.617v-65.362c0-13.515-10.996-24.511-24.511-24.511h-24.511v147.064h24.511
	c13.515,0,24.511-10.996,24.511-24.511c0-4.513,3.657-8.17,8.17-8.17v-16.34C393.104,277.787,389.447,274.13,389.447,269.617z"/>
<rect x="264.17" y="179.745" style="fill:#6DA8D6;" width="59.915" height="147.064"/>
<path style="fill:#F2484B;" d="M147.064,326.809h24.511V179.745h-24.511c-13.515,0-24.511,10.996-24.511,24.511v98.043
	C122.553,315.813,133.549,326.809,147.064,326.809z"/>
<rect x="187.915" y="179.745" style="fill:#FF9D49;" width="59.915" height="147.064"/>
<path style="fill:#082947;" d="M364.936,163.404H147.064c-22.526,0-40.851,18.325-40.851,40.851v98.043
	c0,22.526,18.325,40.851,40.851,40.851h217.872c22.526,0,40.851-18.325,40.851-40.851c0-4.513-3.657-8.17-8.17-8.17
	c-4.513,0-8.17,3.657-8.17,8.17c0,13.515-10.996,24.511-24.511,24.511h-24.511V179.745h24.511c13.515,0,24.511,10.996,24.511,24.511
	v65.362c0,4.513,3.657,8.17,8.17,8.17c4.513,0,8.17-3.657,8.17-8.17v-65.362C405.787,181.729,387.462,163.404,364.936,163.404z
	 M122.553,204.255c0-13.515,10.996-24.511,24.511-24.511h24.511v147.064h-24.511c-13.515,0-24.511-10.996-24.511-24.511V204.255z
	 M187.915,179.745h59.915v147.064h-59.915V179.745z M264.17,179.745h59.915v147.064H264.17V179.745z"/>
<g>
	<path style="fill:#F2EBD9;" d="M408.511,49.021H264.17v70.809h168.851V73.532C433.021,60.017,422.025,49.021,408.511,49.021z"/>
	<path style="fill:#F2EBD9;" d="M78.979,73.532v46.298h16.34V50.427C85.81,53.799,78.979,62.881,78.979,73.532z"/>
</g>
<rect x="111.66" y="16.34" style="fill:#F2484B;" width="59.915" height="103.489"/>
<rect x="187.915" y="16.34" style="fill:#FF9D49;" width="59.915" height="103.489"/>
<path style="fill:#082947;" d="M493.187,76.005c-3.192-3.19-8.364-3.19-11.555,0l-32.27,32.27V73.532
	c0-22.526-18.325-40.851-40.851-40.851H264.17V8.17c0-4.513-3.657-8.17-8.17-8.17H103.489c-4.513,0-8.17,3.657-8.17,8.17v25.333
	c-18.624,3.795-32.681,20.3-32.681,40.029v34.743l-32.27-32.27c-3.192-3.19-8.364-3.19-11.555,0c-3.191,3.192-3.191,8.364,0,11.555
	l43.825,43.825V503.83c0,4.513,3.657,8.17,8.17,8.17h370.383c4.513,0,8.17-3.657,8.17-8.17V131.385l43.825-43.825
	C496.377,84.368,496.377,79.196,493.187,76.005z M433.021,119.83H264.17V49.021h144.34c13.515,0,24.511,10.996,24.511,24.511V119.83
	z M247.83,119.83h-59.915V16.34h59.915V119.83z M171.574,119.83H111.66V16.34h59.915V119.83z M95.319,119.83h-16.34V73.532
	c0-10.651,6.831-19.733,16.34-23.105V119.83z M78.979,495.66V136.17h354.043V495.66H78.979z"/>
<g>
</g>
<g>
</g>
<g>
</g>
<g>
</g>
<g>
</g>
<g>
</g>
<g>
</g>
<g>
</g>
<g>
</g>
<g>
</g>
<g>
</g>
<g>
</g>
<g>
</g>
<g>
</g>
<g>
</g>
</svg>
