<svg height="512pt" viewBox="0 0 512 512" width="512pt" xmlns="http://www.w3.org/2000/svg" xmlns:xlink="http://www.w3.org/1999/xlink"><linearGradient id="a" gradientUnits="userSpaceOnUse" x1="74.9807" x2="437.0193" y1="74.9807" y2="437.0193"><stop offset="0" stop-color="#ff9100"/><stop offset="1" stop-color="#ff5d00"/></linearGradient><linearGradient id="b"><stop offset="0" stop-color="#d3d3d8"/><stop offset="1" stop-color="#babac0"/></linearGradient><linearGradient id="c" gradientUnits="userSpaceOnUse" x1="220.6609" x2="234.6635" xlink:href="#b" y1="300.0604" y2="314.0629"/><linearGradient id="d" gradientUnits="userSpaceOnUse" x1="320.1824" x2="362.2093" xlink:href="#b" y1="172.5338" y2="214.5608"/><linearGradient id="e"><stop offset="0" stop-color="#9cdd05"/><stop offset="1" stop-color="#79ab03"/></linearGradient><linearGradient id="f" gradientUnits="userSpaceOnUse" x1="106.264" x2="204.2914" xlink:href="#e" y1="302.4225" y2="400.4499"/><linearGradient id="g"><stop offset="0" stop-color="#e7e7e7"/><stop offset="1" stop-color="#d3d3d8"/></linearGradient><linearGradient id="h" gradientUnits="userSpaceOnUse" x1="265.2601" x2="299.4155" xlink:href="#g" y1="289.9839" y2="324.1393"/><linearGradient id="i" gradientUnits="userSpaceOnUse" x1="89.631" x2="275.9932" xlink:href="#g" y1="114.2745" y2="300.6367"/><linearGradient id="j" gradientUnits="userSpaceOnUse" x1="305.7086" x2="403.736" xlink:href="#e" y1="302.4225" y2="400.4499"/><path d="m512 256c0 141.386719-114.613281 256-256 256s-256-114.613281-256-256 114.613281-256 256-256 256 114.613281 256 256zm0 0" fill="url(#a)"/><path d="m217.585938 331.140625-14.003907-14.003906 34.15625-34.152344 14.003907 14zm0 0" fill="url(#c)"/><path d="m282.917969 293.640625-41.921875-41.921875 158.371094-158.371094 5.046874 15.242188c9.777344 29.550781 2.265626 61.5-19.621093 83.386718zm0 0" fill="url(#d)"/><path d="m204.289062 302.421875c-26.167968-26.15625-71.894531-26.148437-98.023437 0-27.019531 27.019531-27.019531 71 0 98.027344 13.515625 13.507812 31.261719 20.269531 49.015625 20.269531 17.746094 0 35.5-6.761719 49.011719-20.269531 13.074219-13.074219 20.277343-30.480469 20.277343-49.019531 0-18.527344-7.203124-35.933594-20.28125-49.007813zm-28.003906 70.011719c-5.597656 5.609375-13.054687 8.695312-21.003906 8.695312-7.9375 0-15.394531-3.085937-21.003906-8.683594 0-.011718 0-.011718 0-.011718s0 0-.007813 0c-5.601562-5.609375-8.683593-13.0625-8.683593-21.003906 0-7.949219 3.082031-15.402344 8.691406-21.011719 11.574218-11.554688 30.414062-11.585938 42.007812.011719 11.585938 11.582031 11.585938 30.421874 0 42.003906zm0 0" fill="url(#f)"/><path d="m292.414062 331.140625-34.15625-34.15625 14.003907-14 34.15625 34.152344zm0 0" fill="url(#h)"/><path d="m110.625 93.28125-4.953125 15.25c-9.902344 29.707031-2.375 61.589844 19.605469 83.375l94.667968 94.667969c9.507813 9.507812 21.785157 14.65625 35.054688 14.65625s25.546875-5.148438 35.054688-14.65625l6.929687-6.929688zm0 0" fill="url(#i)"/><path d="m403.734375 302.421875c-26.144531-26.148437-71.878906-26.15625-98.023437 0-13.074219 13.074219-20.28125 30.480469-20.28125 49.007813 0 18.539062 7.203124 35.945312 20.28125 49.019531 13.507812 13.511719 31.253906 20.269531 49.007812 20.269531 17.746094 0 35.5-6.757812 49.019531-20.269531 27.015625-27.027344 27.015625-71.007813-.003906-98.027344zm-28.011719 70.023437c-5.601562 5.597657-13.058594 8.683594-21.003906 8.683594-7.941406 0-15.40625-3.085937-21.003906-8.695312-11.585938-11.582032-11.585938-30.421875 0-42.007813 11.582031-11.582031 30.421875-11.582031 42.007812 0 5.605469 5.601563 8.691406 13.054688 8.691406 21.003907 0 7.949218-3.085937 15.40625-8.691406 21.015624zm0 0" fill="url(#j)"/></svg>